<svg xmlns="http://www.w3.org/2000/svg" viewBox="0 0 128 128"><defs><linearGradient id="forest" x2="1" y2="1"><stop stop-color="#2b604c"/><stop offset="1" stop-color="#10392e"/></linearGradient><linearGradient id="gold" x1="0" y1="0" x2="1" y2="1"><stop stop-color="#f6db9f"/><stop offset="1" stop-color="#c79749"/></linearGradient><linearGradient id="silk" x2="0.4" y2="1"><stop stop-color="#fffbe8"/><stop offset="1" stop-color="#d9dec2"/></linearGradient></defs><rect width="128" height="128" rx="30" fill="url(#forest)"/><rect x="1" y="1" width="126" height="126" rx="29" fill="none" stroke="#ffffff" stroke-opacity="0.12"/><path fill="#91aa86" d="M30 46C42 43 54 47 65 55L91 73L67 88L30 62Z"/><path fill="url(#silk)" d="M30 52C45 67 67 72 98 49V68C98 88 83 102 64 102C45 102 30 88 30 68Z"/><path fill="url(#gold)" d="M93 31A15 15 0 1 1 63 31A15 15 0 1 1 93 31Z"/><path fill="#fff0c5" d="M72 24C74 22 77 21 80 22C81 22 81 24 80 24C77 24 75 25 74 27C73 29 70 27 72 24Z"/></svg>